<!-- Rely on deskthing to handle width and height and just use viewBox for relative dimensions -->
<svg xmlns="http://www.w3.org/2000/svg" viewBox="0 0 512 512">
  <path d="M0 0h512v512H0z" fill="#000000" fill-opacity="1"></path>
  <g class="" style="" transform="translate(0,0)">
    <g>
      <path
        d="M19.510000228881836 19.510000228881836L19.510000228881836 492.29998779296875L492.29998779296875 492.29998779296875L492.29998779296875 19.510000228881836L19.510000228881836 19.510000228881836Z"
        class="" fill="#000" fill-opacity="1"></path>
      <path
        d="M37.5099983215332 37.5099983215332L171.10000610351562 37.5099983215332L171.10000610351562 171.10000610351562L37.5099983215332 171.10000610351562L37.5099983215332 37.5099983215332Z"
        class="" fill="#000" fill-opacity="1"></path>
      <path
        d="M189.10000610351562 37.5099983215332L322.70001220703125 37.5099983215332L322.70001220703125 171.10000610351562L189.10000610351562 171.10000610351562L189.10000610351562 37.5099983215332Z"
        class="" fill="#1db954" fill-opacity="1"></path>
      <path
        d="M340.70001220703125 37.5099983215332L474.29998779296875 37.5099983215332L474.29998779296875 171.10000610351562L340.70001220703125 171.10000610351562L340.70001220703125 37.5099983215332Z"
        class="" fill="#000" fill-opacity="1"></path>
      <path
        d="M255.89999389648438 47.45000076293945C224.52200317382812 47.47800064086914 199.10000610351562 72.9219970703125 199.10000610351562 104.30000305175781C199.08700561523438 119.37799835205078 205.06399536132812 133.84300231933594 215.71600341796875 144.51400756835938C226.3679962158203 155.1840057373047 240.82200622558594 161.18699645996094 255.89999389648438 161.1999969482422C270.9949951171875 161.21299743652344 285.4750061035156 155.22300720214844 296.14898681640625 144.5489959716797C306.822998046875 133.875 312.81298828125 119.3949966430664 312.79998779296875 104.30000305175781C312.79998779296875 89.21399688720703 306.8039855957031 74.74600219726562 296.1310119628906 64.08300018310547C285.4590148925781 53.41999816894531 270.9859924316406 47.4370002746582 255.89999389648438 47.45000076293945Z"
        class="" fill="#1db954" fill-opacity="1"></path>
      <path
        d="M37.5099983215332 189.10000610351562L171.10000610351562 189.10000610351562L171.10000610351562 322.70001220703125L37.5099983215332 322.70001220703125L37.5099983215332 189.10000610351562Z"
        class="" fill="#000" fill-opacity="1"></path>
      <path
        d="M189.10000610351562 189.10000610351562L322.70001220703125 189.10000610351562L322.70001220703125 322.70001220703125L189.10000610351562 322.70001220703125L189.10000610351562 189.10000610351562Z"
        class="" fill="#000" fill-opacity="1"></path>
      <path
        d="M340.70001220703125 189.10000610351562L474.29998779296875 189.10000610351562L474.29998779296875 322.70001220703125L340.70001220703125 322.70001220703125L340.70001220703125 189.10000610351562Z"
        class="" fill="#1db954" fill-opacity="1"></path>
      <path
        d="M407.6000061035156 199.10000610351562C376.24200439453125 199.1280059814453 350.8280029296875 224.54200744628906 350.79998779296875 255.89999389648438C350.7869873046875 270.9779968261719 356.7640075683594 285.4429931640625 367.4159851074219 296.114013671875C378.0679931640625 306.7850036621094 392.5220031738281 312.7869873046875 407.6000061035156 312.79998779296875C422.6780090332031 312.7869873046875 437.1319885253906 306.7850036621094 447.78399658203125 296.114013671875C458.4360046386719 285.4429931640625 464.4129943847656 270.9779968261719 464.3999938964844 255.89999389648438C464.37200927734375 224.54200744628906 438.9580078125 199.1280059814453 407.6000061035156 199.10000610351562Z"
        class="" fill="#1db954" fill-opacity="1"></path>
      <path
        d="M37.5099983215332 340.70001220703125L171.10000610351562 340.70001220703125L171.10000610351562 474.29998779296875L37.5099983215332 474.29998779296875L37.5099983215332 340.70001220703125Z"
        class="" fill="#1db954" fill-opacity="1"></path>
      <path
        d="M189.10000610351562 340.70001220703125L322.70001220703125 340.70001220703125L322.70001220703125 474.29998779296875L189.10000610351562 474.29998779296875L189.10000610351562 340.70001220703125Z"
        class="" fill="#1db954" fill-opacity="1"></path>
      <path
        d="M340.70001220703125 340.70001220703125L474.29998779296875 340.70001220703125L474.29998779296875 474.29998779296875L340.70001220703125 474.29998779296875L340.70001220703125 340.70001220703125Z"
        class="" fill="#1db954" fill-opacity="1"></path>
      <path
        d="M104.30000305175781 350.79998779296875C72.9219970703125 350.79998779296875 47.47800064086914 376.22198486328125 47.45000076293945 407.6000061035156C47.47800064086914 438.9779968261719 72.9219970703125 464.3999938964844 104.30000305175781 464.3999938964844C119.37799835205078 464.4129943847656 133.84300231933594 458.4360046386719 144.51400756835938 447.78399658203125C155.18499755859375 437.1319885253906 161.18699645996094 422.6780090332031 161.1999969482422 407.6000061035156C161.18699645996094 392.5220031738281 155.18499755859375 378.0679931640625 144.51400756835938 367.4159851074219C133.84300231933594 356.7640075683594 119.37799835205078 350.7869873046875 104.30000305175781 350.79998779296875Z"
        class="" fill="#1db954" fill-opacity="1"></path>
      <path
        d="M255.89999389648438 350.79998779296875C224.54200744628906 350.8280029296875 199.1280059814453 376.24200439453125 199.10000610351562 407.6000061035156C199.1280059814453 438.9580078125 224.54200744628906 464.37200927734375 255.89999389648438 464.3999938964844C270.9779968261719 464.4129943847656 285.4429931640625 458.4360046386719 296.114013671875 447.78399658203125C306.7850036621094 437.1319885253906 312.7869873046875 422.6780090332031 312.79998779296875 407.6000061035156C312.7869873046875 392.5220031738281 306.7850036621094 378.0679931640625 296.114013671875 367.4159851074219C285.4429931640625 356.7640075683594 270.9779968261719 350.7869873046875 255.89999389648438 350.79998779296875Z"
        class="" fill="#1db954" fill-opacity="1"></path>
      <path
        d="M407.6000061035156 350.79998779296875C376.24200439453125 350.8280029296875 350.8280029296875 376.24200439453125 350.79998779296875 407.6000061035156C350.8280029296875 438.9580078125 376.24200439453125 464.37200927734375 407.6000061035156 464.3999938964844C438.9580078125 464.37200927734375 464.37200927734375 438.9580078125 464.3999938964844 407.6000061035156C464.37200927734375 376.24200439453125 438.9580078125 350.8280029296875 407.6000061035156 350.79998779296875Z"
        class="selected" fill="#1db954" fill-opacity="1"></path>
    </g>
  </g>
</svg>